# xmcd
#
# Track frame offsets: 
#        150
#        19329
#        37536
#        59942
#        77052
#        87685
#        106556
#        129324
#        147418
#        179320
#
# Disc length: 2674 seconds
#
# Revision: 0
# Processed by: cddbd v1.5.2PL0 Copyright (c) Steve Scherf et al.
# Submitted via: ExactAudioCopy v1.0b4
#
DISCID=810a700a
DTITLE=The Moxie Band - Eminent Domain
DYEAR=2014
DGENRE=Blues, Jazzy Blues
TTITLE0=Tell The Truth
TTITLE1=I Wonder Why (You're So Mean To Me)
TTITLE2=Down At The Old Folks Home
TTITLE3=As Long As I'm Movin'
TTITLE4=Money
TTITLE5=Bending Like A Willow Tree
TTITLE6=If Love Was A Train
TTITLE7=Blue Skies And Sunny
TTITLE8=I Got The Right Street (But The Wrong Direction)
TTITLE9=Stickin' With You
EXTD=
EXTT0=
EXTT1=
EXTT2=
EXTT3=
EXTT4=
EXTT5=
EXTT6=
EXTT7=
EXTT8=
EXTT9=
PLAYORDER=
